<svg width="157" height="157" viewBox="0 0 157 157" fill="none" xmlns="http://www.w3.org/2000/svg">
<path fill-rule="evenodd" clip-rule="evenodd" d="M136.604 78.5009L136.613 79.0821L136.639 79.6639L136.683 80.247L136.744 80.832L136.822 81.4195L136.918 82.0103L137.03 82.6049L137.161 83.2039L137.308 83.8081L137.472 84.418L137.653 85.0343L137.851 85.6576L138.066 86.2886L138.297 86.9279L138.545 87.5761L138.809 88.2338L139.089 88.9017L139.385 89.5804L139.696 90.2704L140.023 90.9725L140.364 91.6871L140.72 92.4148L141.09 93.1563L141.474 93.9121L141.872 94.6827L142.282 95.4687L142.705 96.2705L143.139 97.0886L143.585 97.9235L144.041 98.7755L144.507 99.6451L144.981 100.533L145.464 101.438L145.954 102.362L146.45 103.305L146.952 104.267L147.458 105.248L147.966 106.247L148.477 107.266L148.988 108.303L149.497 109.359L150.005 110.434L150.509 111.526L151.007 112.636L151.498 113.764L151.98 114.907L152.452 116.067L152.912 117.241L153.357 118.43L153.786 119.631L154.198 120.844L154.589 122.067L154.958 123.3L155.303 124.54L155.622 125.786L155.913 127.036L156.173 128.288L156.402 129.541L156.596 130.792L156.755 132.039L156.875 133.28L156.956 134.513L156.996 135.735L156.993 136.944L156.946 138.137L156.853 139.313L156.714 140.467L156.527 141.599L156.291 142.706L156.006 143.784L155.671 144.833L155.286 145.849L154.851 146.83L154.365 147.774L153.83 148.679L153.245 149.544L152.611 150.365L151.929 151.143L151.201 151.875L150.427 152.561L149.608 153.198L148.747 153.787L147.845 154.327L146.904 154.816L145.926 155.255L144.913 155.645L143.867 155.983L142.791 156.273L141.686 156.512L140.556 156.703L139.403 156.846L138.229 156.943L137.037 156.994L135.829 157L134.608 156.963L133.376 156.886L132.136 156.768L130.889 156.613L129.638 156.421L128.386 156.195L127.133 155.937L125.883 155.648L124.637 155.332L123.396 154.989L122.163 154.621L120.939 154.232L119.725 153.822L118.523 153.394L117.333 152.95L116.158 152.492L114.997 152.021L113.852 151.539L112.724 151.049L111.612 150.551L110.518 150.048L109.442 149.54L108.385 149.031L107.346 148.52L106.326 148.009L105.325 147.5L104.343 146.994L103.379 146.493L102.435 145.996L101.509 145.505L100.602 145.022L99.7133 144.546L98.8423 144.08L97.9888 143.623L97.1526 143.176L96.3332 142.741L95.5302 142.318L94.743 141.906L93.9712 141.508L93.2142 141.123L92.4716 140.751L91.7428 140.394L91.0271 140.051L90.3241 139.724L89.6331 139.411L88.9536 139.114L88.2849 138.833L87.6264 138.568L86.9775 138.319L86.3375 138.086L85.7059 137.87L85.082 137.671L84.4652 137.488L83.8548 137.322L83.2502 137.174L82.6507 137.042L82.0558 136.928L81.4648 136.831L80.877 136.751L80.2919 136.689L79.7087 136.644L79.1268 136.617L78.5456 136.607L77.9645 136.614L77.3827 136.639L76.7998 136.681L76.215 136.74L75.6277 136.817L75.0372 136.912L74.4429 137.023L73.8443 137.152L73.2405 137.298L72.6311 137.461L72.0153 137.64L71.3926 137.837L70.7623 138.051L70.1237 138.281L69.4762 138.527L68.8193 138.79L68.1523 139.068L67.4745 139.363L66.7854 139.673L66.0843 139.998L65.3707 140.339L64.644 140.693L63.9036 141.063L63.149 141.445L62.3796 141.842L61.5949 142.251L60.7944 142.673L59.9776 143.106L59.1441 143.551L58.2935 144.006L57.4253 144.471L56.5393 144.945L55.635 145.428L54.7123 145.917L53.771 146.413L52.8108 146.914L51.8317 147.42L50.8336 147.928L49.8166 148.438L48.7807 148.949L47.7261 149.459L46.6531 149.967L45.562 150.471L44.4532 150.97L43.3273 151.462L42.1849 151.945L41.0266 152.418L39.8534 152.878L38.6661 153.325L37.4659 153.755L36.2538 154.168L35.0312 154.561L33.7994 154.932L32.56 155.279L31.3145 155.6L30.0648 155.893L28.8126 156.156L27.5599 156.387L26.3087 156.584L25.0611 156.746L23.8195 156.87L22.586 156.954L21.363 156.997L20.1529 156.998L18.9581 156.954L17.7812 156.865L16.6246 156.729L15.4908 156.546L14.3822 156.314L13.3013 156.033L12.2504 155.702L11.2319 155.321L10.248 154.889L9.3009 154.408L8.3925 153.876L7.52476 153.295L6.69942 152.666L5.91809 151.988L5.1822 151.263L4.49302 150.492L3.85161 149.677L3.25889 148.82L2.71553 147.921L2.22204 146.983L1.77872 146.007L1.38566 144.997L1.04277 143.954L0.749753 142.88L0.506136 141.777L0.311256 140.649L0.164277 139.498L0.0642003 138.326L0.00987332 137.135L0 135.928L0.0331537 134.708L0.10779 133.477L0.222257 132.237L0.374814 130.991L0.563639 129.74L0.786845 128.488L1.04249 127.235L1.3286 125.984L1.64316 124.738L1.98415 123.497L2.34953 122.263L2.73729 121.038L3.14541 119.823L3.57191 118.62L4.01482 117.43L4.47224 116.253L4.94229 115.091L5.42315 113.945L5.91304 112.815L6.41027 111.702L6.91319 110.607L7.42021 109.529L7.92983 108.47L8.4406 107.43L8.95113 106.408L9.46012 105.406L9.96634 104.422L10.4686 103.457L10.9658 102.511L11.457 101.584L11.941 100.676L12.4171 99.7852L12.8844 98.9128L13.342 98.058L13.7893 97.2204L14.2255 96.3997L14.6501 95.5953L15.0624 94.8069L15.4619 94.0339L15.8482 93.2757L16.2206 92.532L16.579 91.8021L16.9227 91.0854L17.2516 90.3814L17.5653 89.6895L17.8635 89.009L18.146 88.3395L18.4125 87.6802L18.6628 87.0305L18.8968 86.3899L19.1142 85.7576L19.3149 85.1331L19.4988 84.5157L19.6658 83.9048L19.8158 83.2998L19.9486 82.7L20.0642 82.1047L20.1626 81.5134L20.2437 80.9254L20.3074 80.34L20.3537 79.7567L20.3826 79.1747L20.3941 78.5935L20.3882 78.0124L20.3648 77.4307L20.324 76.8479L20.2659 76.2632L20.1903 75.6761L20.0975 75.0859L19.9873 74.492L19.8599 73.8937L19.7154 73.2904L19.5539 72.6814L19.3753 72.0662L19.1799 71.444L18.9678 70.8143L18.7391 70.1764L18.494 69.5297L18.2326 68.8735L17.9552 68.2073L17.662 67.5304L17.3532 66.8422L17.0291 66.1421L16.6901 65.4295L16.3363 64.7039L15.9683 63.9646L15.5864 63.2111L15.1911 62.4429L14.7828 61.6594L14.3621 60.8602L13.9295 60.0447L13.4856 59.2125L13.0312 58.3633L12.5669 57.4965L12.0936 56.6119L11.612 55.7091L11.123 54.7879L10.6276 53.848L10.1268 52.8893L9.62173 51.9117L9.11349 50.9151L8.6033 49.8996L8.09247 48.8652L7.58233 47.8121L7.07432 46.7405L6.56993 45.6508L6.07071 44.5434L5.57829 43.4188L5.09437 42.2777L4.62068 41.1206L4.15904 39.9486L3.7113 38.7624L3.27936 37.5631L2.86517 36.3519L2.47071 35.1301L2.09798 33.8989L1.749 32.6601L1.4258 31.415L1.13041 30.1655L0.864849 28.9134L0.631097 27.6607L0.431113 26.4093L0.266803 25.1614L0.140009 23.9191L0.052502 22.6849L0.005962 21.4609L0.00196916 20.2497L0.0419892 19.0536L0.127361 17.8752L0.259284 16.7169L0.438808 15.5811L0.66682 14.4704L0.944039 13.3872L1.271 12.3339L1.64806 11.3127L2.07537 10.326L2.55291 9.37583L3.08043 8.46427L3.65749 7.59322L4.28348 6.76443L4.95755 5.97953L5.67869 5.23997L6.4457 4.54702L7.25718 3.90177L8.1116 3.30513L9.00725 2.75782L9.94226 2.26034L10.9147 1.81301L11.9224 1.41594L12.9632 1.06906L14.0348 0.772087L15.1348 0.524556L16.2608 0.325821L17.4105 0.17506L18.5812 0.0712879L19.7705 0.0133628L20.976 0L22.1951 0.0297828L23.4256 0.101175L24.6649 0.212535L25.9108 0.362126L27.161 0.548133L28.4135 0.768674L29.6661 1.02181L30.9168 1.30557L32.1638 1.61794L33.4053 1.9569L34.6397 2.32042L35.8654 2.70648L37.081 3.11305L38.2852 3.53816L39.4767 3.97985L40.6545 4.43618L41.8176 4.9053L42.9652 5.38536L44.0964 5.87461L45.2107 6.37132L46.3075 6.87385L47.3863 7.38061L48.4468 7.89008L49.4887 8.40081L50.5117 8.91142L51.5158 9.42059L52.501 9.92707L53.4672 10.4297L54.4145 10.9274L55.3431 11.419L56.2532 11.9037L57.145 12.3804L58.0189 12.8484L58.875 13.3069L59.714 13.755L60.536 14.1922L61.3417 14.6177L62.1313 15.031L62.9056 15.4316L63.6648 15.8189L64.4097 16.1925L65.1407 16.5519L65.8584 16.8969L66.5634 17.227L67.2562 17.5419L67.9376 17.8414L68.608 18.1251L69.268 18.3929L69.9184 18.6445L70.5598 18.8798L71.1927 19.0985L71.8178 19.3006L72.4357 19.4858L73.0471 19.6542L73.6525 19.8055L74.2528 19.9397L74.8483 20.0567L75.4399 20.1564L76.0282 20.2389L76.6137 20.304L77.1972 20.3517L77.7793 20.382L78.3605 20.3949L78.9416 20.3903L79.5232 20.3683L80.1059 20.329L80.6904 20.2722L81.2773 20.198L81.8672 20.1065L82.4608 19.9977L83.0587 19.8717L83.6616 19.7286L84.2701 19.5684L84.8848 19.3912L85.5064 19.1971L86.1355 18.9863L86.7727 18.759L87.4187 18.5151L88.0741 18.255L88.7395 17.9789L89.4155 17.6869L90.1028 17.3794L90.8019 17.0565L91.5134 16.7186L92.238 16.366L92.9762 15.9991L93.7285 15.6183L94.4955 15.224L95.2777 14.8167L96.0757 14.397L96.8898 13.9653L97.7206 13.5223L98.5685 13.0687L99.4339 12.6052L100.317 12.1325L101.218 11.6515L102.138 11.1631L103.076 10.6682L104.034 10.1678L105.01 9.66299L106.005 9.15495L107.019 8.64487L108.052 8.13403L109.103 7.62379L110.173 7.11555L111.262 6.6108L112.368 6.11111L113.491 5.61809L114.631 5.13342L115.787 4.65884L116.957 4.19617L118.143 3.74725L119.341 3.31398L120.551 2.8983L121.772 2.50219L123.003 2.12765L124.241 1.7767L125.485 1.45137L126.735 1.15369L127.987 0.885676L129.239 0.649316L130.491 0.446571L131.739 0.279349L132.982 0.149501L134.217 0.0588015L135.442 0.00893929L136.654 0.00150292L137.851 0.0379676L139.031 0.119683L140.191 0.24786L141.329 0.42356L142.442 0.647685L143.527 0.920966L144.583 1.24396L145.607 1.61702L146.596 2.04034L147.549 2.51388L148.464 3.03744L149.338 3.61058L150.171 4.23271L150.959 4.90299L151.702 5.62044L152.399 6.38384L153.048 7.19185L153.649 8.04292L154.2 8.93536L154.701 9.86732L155.153 10.8368L155.554 11.8418L155.905 12.8801L156.206 13.9493L156.457 15.0472L156.66 16.1713L156.814 17.3191L156.922 18.4882L156.983 19.6762L157 20.8805L156.974 22.0986L156.905 23.3283L156.797 24.567L156.651 25.8125L156.467 27.0625L156.25 28.3148L155.999 29.5675L155.718 30.8185L155.407 32.0658L155.07 33.3079L154.709 34.5429L154.325 35.7694L153.92 36.9858L153.496 38.1909L153.055 39.3835L152.6 40.5624L152.132 41.7268L151.653 42.8756L151.164 44.0082L150.668 45.1239L150.166 46.2221L149.659 47.3024L149.15 48.3643L148.639 49.4077L148.129 50.4323L147.619 51.4379L147.113 52.4246L146.61 53.3923L146.112 54.3411L145.619 55.2712L145.134 56.1828L144.657 57.0761L144.188 57.9513L143.729 58.8089L143.28 59.6492L142.842 60.4726L142.415 61.2795L142.001 62.0705L141.599 62.8459L141.211 63.6064L140.836 64.3524L140.476 65.0845L140.13 65.8032L139.798 66.5092L139.482 67.203L139.182 67.8852L138.897 68.5565L138.628 69.2174L138.375 69.8685L138.138 70.5106L137.918 71.1441L137.715 71.7698L137.528 72.3883L137.358 73.0002L137.206 73.6061L137.07 74.2067L136.952 74.8027L136.851 75.3946L136.767 75.9831L136.7 76.5688L136.651 77.1524L136.619 77.7346L136.605 78.3159L136.604 78.5009Z" fill="#DBFAC0"/>
</svg>
