<svg width="91" height="93" viewBox="0 0 91 93" fill="none" xmlns="http://www.w3.org/2000/svg">
<path d="M79.0253 46.5039V46.5039ZM79.0253 46.5039L75.0624 46.7931L72.1524 47.0243L70.0213 47.2208L68.4841 47.3986L67.4145 47.5692L66.7248 47.7414L66.3544 47.9223L66.2609 48.1183L66.415 48.335L66.7965 48.5779L67.3912 48.8525L68.1886 49.1639L69.1792 49.5172L70.3535 49.9171L71.6991 50.3674L73.1995 50.8708L74.832 51.4286L76.5668 52.0394L78.3658 52.6995L80.1832 53.4018L81.966 54.1359L83.6565 54.8883L85.1959 55.6425L86.5281 56.3805L87.6042 57.0835L88.387 57.7337L88.8541 58.316L89 58.8186L88.8356 59.2347L88.3874 59.5623L87.6936 59.8046L86.8011 59.9688L85.7611 60.0658L84.6251 60.1088L83.442 60.1122L82.2561 60.0908L81.1056 60.0592L80.0217 60.0309L79.0295 60.0183L78.148 60.0323L77.391 60.0828L76.7678 60.1782L76.2844 60.3259L75.9437 60.5323L75.7465 60.803L75.6913 61.1426L75.7749 61.5548L75.992 62.0423L76.3353 62.6063L76.7945 63.2465L77.3563 63.9602L78.0036 64.742L78.7146 65.5831L79.4631 66.4708L80.2175 67.3878L80.9416 68.3124L81.5956 69.2183L82.1372 70.0756L82.524 70.8516L82.7168 71.5135L82.6824 72.0299L82.397 72.374L81.8487 72.5262L81.0395 72.4756L79.9852 72.2222L78.7148 71.7763L77.2675 71.1581L75.6899 70.3958L74.0314 69.5227L72.3414 68.5751L70.6652 67.5893L69.0423 66.5994L67.5052 65.6358L66.0788 64.7247L64.7811 63.8877L63.6238 63.1421L62.6143 62.5018L61.7565 61.9782L61.0525 61.5819L60.5041 61.3232L60.1143 61.2143L59.8885 61.2705L59.8361 61.5125L59.9724 61.969L60.3212 62.6799L60.9181 63.7016L61.8152 65.1146L63.0892 67.0344L64.8528 69.6302L65.8956 71.4201L63.3885 68.7204L61.5307 66.7505L60.1503 65.3293L59.1308 64.3347L58.3916 63.6829L57.8763 63.3167L57.5447 63.1969L57.3678 63.2971L57.3246 63.5999L57.3992 64.0943L57.5792 64.7733L57.8542 65.6323L58.2147 66.6673L58.6507 67.8731L59.1513 69.2418L59.7033 70.7608L60.2912 72.4116L60.8965 74.1685L61.498 75.9972L62.0719 77.8557L62.5933 79.6947L63.0369 81.4597L63.3795 83.0945L63.6013 84.5448L63.6879 85.763L63.6319 86.7116L63.433 87.3674L63.0986 87.7225L62.6424 87.785L62.0834 87.5774L61.4438 87.1343L60.7472 86.4984L60.0166 85.7171L59.2734 84.8387L58.536 83.9098L57.8196 82.9732L57.1357 82.0661L56.4924 81.2202L55.8951 80.4613L55.3462 79.8098L54.8464 79.2815L54.3944 78.8881L53.9879 78.6381L53.6235 78.5373L53.2972 78.589L53.0042 78.7947L52.7397 79.1535L52.4982 79.6625L52.2738 80.316L52.0606 81.1049L51.8522 82.0161L51.6422 83.0315L51.4239 84.1275L51.1909 85.2738L50.9372 86.4336L50.6576 87.5636L50.348 88.6151L50.0061 89.5357L49.6314 90.2724L49.226 90.7749L48.7941 91L48.3424 90.9153L47.8795 90.503L47.4151 89.7621L46.9593 88.7091L46.5218 87.3766L46.1109 85.811L45.733 84.0676L45.3923 82.2069L45.0904 80.2895L44.8268 78.3721L44.5989 76.5051L44.4027 74.731L44.2331 73.0832L44.0843 71.5874L43.9499 70.262L43.8235 69.1204L43.6986 68.1719L43.5683 67.4246L43.4254 66.8867L43.262 66.5687L43.0692 66.4857L42.836 66.6601L42.549 67.1244L42.1904 67.9261L41.7364 69.1341L41.1542 70.8475L40.3969 73.2107L39.3963 76.4364L39.0616 76.5183L39.5697 73.1385L39.9205 70.6516L40.1454 68.8331L40.2654 67.5305L40.2943 66.6384L40.2407 66.0838L40.1095 65.8154L39.9026 65.7974L39.6201 66.0048L39.2605 66.4197L38.8213 67.0292L38.2996 67.8226L37.6927 68.7899L36.9988 69.9198L36.2176 71.1976L35.3515 72.6042L34.4062 74.1143L33.3915 75.6956L32.322 77.3087L31.2171 78.9071L30.1009 80.4397L29.0012 81.8526L27.9477 83.0931L26.9705 84.1136L26.0974 84.8758L25.3514 85.3537L24.7492 85.5364L24.2994 85.4282L24.0023 85.0486L23.8501 84.4289L23.8282 83.6098L23.9166 82.6373L24.092 81.5592L24.3295 80.4215L24.6043 79.2666L24.8928 78.1315L25.1734 77.047L25.4271 76.0378L25.6376 75.1227L25.791 74.3152L25.8759 73.6246L25.8829 73.0565L25.8041 72.6138L25.6333 72.2968L25.3656 72.1041L24.9975 72.0325L24.5266 72.0773L23.9523 72.2319L23.2762 72.4877L22.5021 72.8338L21.6373 73.2563L20.6927 73.738L19.6842 74.2582L18.6326 74.7919L17.5644 75.3108L16.5115 75.7829L15.5107 76.1745L14.602 76.451L13.827 76.5798L13.2256 76.5322L12.8329 76.2864L12.6764 75.8301L12.7723 75.1614L13.1244 74.2899L13.723 73.2365L14.5453 72.0311L15.5582 70.7102L16.7204 69.3142L17.9867 67.8836L19.3106 66.4567L20.6481 65.0674L21.9591 63.7436L23.2097 62.5069L24.3715 61.3731L25.4224 60.3521L26.3449 59.4498L27.1255 58.6686L27.7531 58.0089L28.2171 57.4704L28.5064 57.0525L28.6069 56.7562L28.4997 56.5844L28.1586 56.5434L27.5467 56.6444L26.6113 56.9049L25.2778 57.3517L23.4387 58.0246L20.9382 58.9824L17.5465 60.3125L18.9844 59.2842L21.7356 57.6908L23.7433 56.4992L25.1853 55.6046L26.1829 54.9348L26.8192 54.4393L27.1515 54.0822L27.2193 53.8375L27.0491 53.6857L26.6589 53.6123L26.0604 53.6056L25.2614 53.6559L24.2684 53.7544L23.0876 53.8929L21.7275 54.0627L20.2005 54.2543L18.5246 54.4574L16.725 54.6603L14.8351 54.8504L12.8971 55.0143L10.9611 55.1382L9.08382 55.2091L7.32503 55.2157L5.74416 55.1491L4.39555 55.004L3.3239 54.779L2.56033 54.4771L2.11979 54.1052L2 53.6736L2.18233 53.195L2.63412 52.6832L3.31224 52.152L4.16705 51.6141L5.14638 51.0807L6.19904 50.5605L7.27738 50.06L8.33912 49.5833L9.34822 49.1323L10.2751 48.7071L11.0961 48.3064L11.7934 47.9276L12.3535 47.5674L12.7671 47.2217L13.0277 46.8862L13.1318 46.5563L13.078 46.2271L12.8669 45.8938L12.5015 45.5519L11.9872 45.1968L11.3324 44.8243L10.549 44.4309L9.65362 44.0137L8.66781 43.571L7.61923 43.1024L6.54187 42.6091L5.47609 42.0946L4.46797 41.5646L3.56782 41.027L2.82784 40.4923L2.29887 39.9729L2.02659 39.4822L2.0474 39.0342L2.38471 38.642L3.04619 38.3169L4.02235 38.0669L5.28701 37.8962L6.79942 37.805L8.50784 37.7891L10.354 37.8407L12.2776 37.9491L14.2207 38.1017L16.1309 38.2849L17.9634 38.4852L19.6818 38.6895L21.2585 38.886L22.6733 39.0638L23.9123 39.2132L24.9659 39.3254L25.8273 39.392L26.4905 39.4044L26.9481 39.3534L27.1899 39.228L27.2003 39.0147L26.9558 38.6959L26.4216 38.2478L25.5468 37.6382L24.2573 36.8218L22.4459 35.7344L19.9554 34.283L16.5526 32.3301L19.9683 33.6473L22.7232 34.7125L24.7531 35.4687L26.2341 35.9824L27.2869 36.2988L27.9952 36.4483L28.4179 36.4511L28.5963 36.3201L28.5597 36.063L28.3288 35.6837L27.9191 35.1835L27.3425 34.5625L26.6095 33.8201L25.7308 32.9562L24.7192 31.9726L23.5906 30.8738L22.3655 29.6685L21.0703 28.3704L19.7372 26.9992L18.4043 25.5808L17.1147 24.1475L15.9143 22.7361L14.8491 21.3868L13.962 20.1404L13.2892 19.0349L12.8569 18.1028L12.6791 17.3679L12.7564 16.8435L13.0763 16.5316L13.6148 16.4229L14.3387 16.4982L15.2093 16.7311L16.1852 17.0897L17.2257 17.54L18.2927 18.0475L19.3528 18.5798L20.3775 19.1071L21.3444 19.6036L22.236 20.047L23.04 20.419L23.7479 20.7049L24.3548 20.8928L24.8587 20.9734L25.2594 20.9395L25.5587 20.7858L25.7599 20.5086L25.8674 20.106L25.887 19.5777L25.826 18.9256L25.6932 18.1545L25.4995 17.2724L25.2579 16.2914L24.984 15.2285L24.6958 14.1065L24.4142 12.9542L24.1621 11.8067L23.9642 10.7047L23.8454 9.6934L23.8299 8.82033L23.9387 8.13239L24.1884 7.67232L24.5892 7.47496L25.1434 7.56376L25.8451 7.94808L26.6799 8.62183L27.6268 9.56371L28.6591 10.739L29.7474 12.1025L30.8616 13.6028L31.9728 15.186L33.056 16.7997L34.0899 18.3958L35.0586 19.9325L35.9507 21.3751L36.7594 22.6963L37.4812 23.875L38.1157 24.8954L38.6643 25.7454L39.1294 26.4145L39.5141 26.8927L39.8209 27.1679L40.0517 27.224L40.2072 27.0386L40.2859 26.5799L40.284 25.802L40.1942 24.6398L40.0046 22.9995L39.6968 20.7459L39.243 17.6806L39.0112 15.315L40.1086 18.8758L40.9347 21.4866L41.5668 23.3887L42.0575 24.745L42.4435 25.6675L42.7512 26.2332L42.9999 26.4958L43.2043 26.492L43.376 26.2469L43.5245 25.7777L43.658 25.0961L43.7839 24.2109L43.9091 23.1299L44.0402 21.8618L44.1838 20.4186L44.3461 18.8168L44.5332 17.0796L44.7505 15.2381L45.0024 13.3317L45.2919 11.4083L45.6203 9.52307L45.9867 7.73571L46.3877 6.10709L46.8175 4.6948L47.2685 3.54851L47.7313 2.70559L48.1957 2.1879L48.652 2L49.091 2.12926L49.5054 2.54768L49.8903 3.21501L50.2427 4.08276L50.5624 5.09833L50.8512 6.20882L51.1126 7.3641L51.3516 8.51901L51.5739 9.63459L51.7858 10.6786L51.994 11.6252L52.205 12.4547L52.4251 13.1524L52.6605 13.7082L52.9172 14.1154L53.2005 14.37L53.5156 14.4707L53.8674 14.4182L54.2601 14.2152L54.6973 13.8667L55.1817 13.3803L55.7149 12.7666L56.297 12.0399L56.926 11.2192L57.5978 10.3284L58.3049 9.3974L59.0371 8.46167L59.7803 7.5623L60.5171 6.74481L61.227 6.0573L61.8873 5.54784L62.4745 5.26106L62.9657 5.23445L63.3407 5.49472L63.5839 6.0548L63.6857 6.91201L63.644 8.04775L63.464 9.42889L63.158 11.0106L62.7442 12.7402L62.2449 14.5617L61.685 16.4196L61.0896 18.2628L60.4831 20.0466L59.8875 21.7344L59.3222 23.2978L58.8038 24.7159L58.3459 25.9746L57.9602 27.0647L57.6569 27.9802L57.4456 28.717L57.3362 29.2708L57.3404 29.6356L57.4727 29.8019L57.7523 29.7545L58.2054 29.4704L58.868 28.9148L59.7908 28.037L61.0456 26.7628L62.7358 24.984L65.013 22.5411L65.5427 22.371L63.5911 25.2299L62.1756 27.3435L61.1682 28.9032L60.4823 30.0395L60.059 30.8423L59.8581 31.3748L59.8524 31.6816L60.0242 31.7944L60.3625 31.7362L60.8608 31.5238L61.5154 31.1701L62.3245 30.686L63.286 30.0817L64.3968 29.3682L65.6508 28.5586L67.0379 27.669L68.5421 26.7196L70.1408 25.7349L71.804 24.7442L73.4943 23.7806L75.168 22.8798L76.7768 22.0784L78.2708 21.4109L79.6023 20.9075L80.7291 20.5912L81.6188 20.4755L82.2511 20.5638L82.6196 20.8485L82.7319 21.3127L82.6082 21.9314L82.2791 22.6746L81.7824 23.5096L81.1596 24.4034L80.4533 25.3251L79.7043 26.2472L78.9504 27.1463L78.2243 28.0038L77.5542 28.8056L76.9631 29.5417L76.4695 30.2057L76.0881 30.7942L75.8298 31.306L75.703 31.7419L75.7136 32.1043L75.8653 32.3965L76.1603 32.6228L76.5985 32.7886L77.1776 32.8999L77.8929 32.9638L78.736 32.9885L79.6947 32.9832L80.7518 32.9586L81.8842 32.9266L83.0626 32.9005L84.2511 32.8944L85.4073 32.9231L86.4834 33.0014L87.4285 33.1429L88.1909 33.3593L88.722 33.6592L88.9803 34.0471L88.9353 34.5226L88.5707 35.0806L87.8867 35.7107L86.9007 36.3987L85.6453 37.1276L84.166 37.8786L82.5173 38.6335L80.7575 39.375L78.9451 40.0888L77.1349 40.7632L75.3751 41.3903L73.7064 41.9652L72.1612 42.4859L70.7642 42.9529L69.5339 43.3685L68.4836 43.7361L67.6237 44.0604L66.9634 44.3461L66.5126 44.5985L66.2842 44.823L66.2962 45.025L66.5745 45.2101L67.1569 45.3843L68.0975 45.5546L69.4742 45.729L71.3993 45.918L74.0365 46.1361L77.627 46.4036L79.0253 46.5039Z" stroke="#BDE29C" stroke-width="2"/>
</svg>
