<svg width="73" height="75" viewBox="0 0 73 75" fill="none" xmlns="http://www.w3.org/2000/svg">
<path d="M71.8614 37.1165V37.1165ZM71.8614 37.1165L71.9133 37.7858L71.9532 38.4565L71.9811 39.1283L71.9967 39.801L72 40.4744L71.9909 41.1481L71.9692 41.8219L71.9348 42.4956L71.8877 43.1687L71.8278 43.8412L71.7549 44.5126L71.669 45.1826L71.57 45.8511L71.4579 46.5175L71.3325 47.1817L71.194 47.8434L71.0422 48.5021L70.8771 49.1577L70.6987 49.8097L70.507 50.4578L70.3021 51.1017L70.0839 51.7411L69.8525 52.3757L69.6079 53.0051L69.3503 53.629L69.0796 54.247L68.7961 54.8589L68.4997 55.4643L68.1906 56.0629L67.869 56.6544L67.5349 57.2385L67.1886 57.8149L66.8303 58.3833L66.46 58.9434L66.0781 59.4949L65.6848 60.0376L65.2802 60.5712L64.8648 61.0954L64.4386 61.6101L64.002 62.1151L63.5553 62.61L63.0988 63.0947L62.6328 63.5691L62.1576 64.0331L61.6737 64.4864L61.1813 64.9289L60.6807 65.3606L60.1724 65.7813L59.6567 66.1909L59.1339 66.5894L58.6044 66.9768L58.0685 67.3529L57.5267 67.7178L56.9791 68.0714L56.4263 68.4137L55.8686 68.7448L55.3062 69.0647L54.7396 69.3733L54.1691 69.6708L53.595 69.9572L53.0177 70.2326L52.4374 70.497L51.8545 70.7506L51.2694 70.9935L50.6823 71.2257L50.0934 71.4475L49.5032 71.6588L48.9119 71.86L48.3198 72.051L47.727 72.2321L47.134 72.4035L46.5408 72.5653L45.9478 72.7176L45.3552 72.8606L44.7631 72.9945L44.1717 73.1194L43.5813 73.2354L42.9919 73.3427L42.4038 73.4415L41.8171 73.5318L41.2319 73.6139L40.6483 73.6877L40.0664 73.7534L39.4865 73.8112L38.9085 73.8611L38.3325 73.9032L37.7588 73.9376L37.1873 73.9644L36.6181 73.9837L36.0513 73.9955L35.487 74L34.9252 73.9971L34.3661 73.987L33.8096 73.9696L33.2559 73.9451L32.7051 73.9134L32.1571 73.8746L31.6121 73.8288L31.0701 73.7759L30.5311 73.716L29.9954 73.6492L29.4628 73.5754L28.9335 73.4946L28.4076 73.4069L27.8852 73.3124L27.3662 73.211L26.8508 73.1027L26.3391 72.9876L25.8311 72.8657L25.3269 72.737L24.8266 72.6016L24.3303 72.4595L23.8381 72.3108L23.35 72.1555L22.8662 71.9936L22.3867 71.8253L21.9116 71.6506L21.4409 71.4696L20.9749 71.2824L20.5134 71.0891L20.0567 70.8898L19.6048 70.6845L19.1578 70.4734L18.7157 70.2564L18.2786 70.0339L17.8466 69.8057L17.4197 69.572L16.9981 69.3329L16.5818 69.0885L16.1708 68.8388L15.7653 68.584L15.3652 68.3241L14.9707 68.0592L14.5818 67.7895L14.1986 67.515L13.8212 67.2358L13.4495 66.9521L13.0836 66.6639L12.7237 66.3713L12.3697 66.0745L12.0217 65.7736L11.6797 65.4687L11.3438 65.1599L11.0139 64.8474L10.6902 64.5312L10.3726 64.2116L10.0611 63.8886L9.75582 63.5624L9.45672 63.2332L9.16379 62.901L8.87706 62.566L8.59652 62.2283L8.32217 61.888L8.054 61.5454L7.79199 61.2004L7.53614 60.8533L7.28641 60.5042L7.04279 60.1533L6.80522 59.8006L6.57369 59.4462L6.34813 59.0905L6.12851 58.7334L5.91475 58.3751L5.70681 58.0158L5.5046 57.6555L5.30806 57.2945L5.1171 56.9328L4.93164 56.5706L4.75159 56.208L4.57686 55.8451L4.40734 55.4821L4.24293 55.119L4.08353 54.756L3.92902 54.3931L3.77931 54.0305L3.63427 53.6682L3.4938 53.3064L3.3578 52.9451L3.22614 52.5843L3.09873 52.2242L2.97546 51.8647L2.85624 51.506L2.74097 51.1481L2.62957 50.791L2.52196 50.4346L2.41807 50.0791L2.31783 49.7245L2.2212 49.3707L2.12813 49.0177L2.0386 48.6656L1.95259 48.3142L1.8701 47.9637L1.79114 47.6139L1.71572 47.2648L1.64387 46.9164L1.57561 46.5687L1.51098 46.2217L1.45 45.8753L1.39271 45.5296L1.33915 45.1844L1.28936 44.8399L1.24337 44.496L1.20124 44.1527L1.16299 43.81L1.12867 43.4679L1.09833 43.1264L1.07199 42.7855L1.0497 42.4453L1.03149 42.1058L1.01739 41.767L1.00743 41.4289L1.00162 41.0915L1 40.755L1.00257 40.4192L1.00933 40.0844L1.0203 39.7504L1.03545 39.4174L1.05479 39.0854L1.07828 38.7544L1.10591 38.4245L1.13762 38.0957L1.17336 37.7681L1.21305 37.4417L1.25657 37.1165L1.30382 36.7926L1.35467 36.47L1.40896 36.1488L1.46652 35.8288L1.52719 35.5102L1.59077 35.193L1.65706 34.877L1.72586 34.5623L1.79695 34.2489L1.8701 33.9366L1.9451 33.6254L2.02172 33.3153L2.09972 33.0061L2.17889 32.6977L2.259 32.3901L2.33983 32.083L2.42117 31.7763L2.50282 31.47L2.58458 31.1637L2.66628 30.8574L2.74773 30.5508L2.8288 30.2438L2.90934 29.9361L2.98923 29.6276L3.06837 29.318L3.14669 29.0072L3.22412 28.6949L3.30063 28.3808L3.37621 28.0649L3.45086 27.7468L3.52461 27.4265L3.59754 27.1036L3.66972 26.778L3.74127 26.4496L3.81232 26.1181L3.88303 25.7834L3.95359 25.4454L4.02421 25.104L4.09512 24.7591L4.16658 24.4106L4.23887 24.0584L4.3123 23.7027L4.38717 23.3432L4.46385 22.9802L4.54265 22.6136L4.62395 22.2436L4.70809 21.8701L4.79543 21.4934L4.88633 21.1136L4.98113 20.7309L5.08021 20.3454L5.18389 19.9573L5.29254 19.5669L5.40647 19.1744L5.52602 18.7801L5.6515 18.3843L5.78321 17.9872L5.92146 17.5892L6.06651 17.1905L6.21862 16.7916L6.37804 16.3927L6.54501 15.9943L6.71972 15.5966L6.90237 15.2001L7.09313 14.8051L7.29215 14.412L7.49957 14.0213L7.71549 13.6332L7.94 13.2481L8.17317 12.8665L8.41505 12.4887L8.66565 12.1151L8.92498 11.746L9.19299 11.3817L9.46963 11.0225L9.75482 10.6688L10.0485 10.3207L10.3505 9.97854L10.6607 9.64253L10.9789 9.31284L11.3051 8.98967L11.639 8.67314L11.9804 8.36339L12.3292 8.06053L12.6852 7.76463L13.0481 7.47576L13.4178 7.19396L13.794 6.91926L14.1765 6.65164L14.5652 6.39111L14.9598 6.13763L15.3601 5.89115L15.766 5.65161L16.1772 5.41895L16.5935 5.19307L17.0149 4.97389L17.4411 4.7613L17.8719 4.55521L18.3073 4.35549L18.7471 4.16203L19.1911 3.97473L19.6393 3.79346L20.0915 3.61812L20.5477 3.44861L21.0077 3.28481L21.4715 3.12663L21.939 2.974L22.4102 2.82683L22.8849 2.68507L23.3632 2.54866L23.845 2.41757L24.3303 2.29179L24.8191 2.1713L25.3112 2.05613L25.8068 1.9463L26.3057 1.84188L26.8079 1.74293L27.3134 1.64955L27.8222 1.56185L28.3342 1.47993L28.8493 1.40393L29.3676 1.33398L29.8889 1.27022L30.4133 1.21278L30.9405 1.16183L31.4706 1.11751L32.0034 1.07998L32.539 1.0494L33.0771 1.02595L33.6176 1.00979L34.1605 1.00108L34.7057 1L35.2529 1.00672L35.8021 1.02141L36.3531 1.04423L36.9058 1.07536L37.4599 1.11495L38.0154 1.16317L38.5719 1.22018L39.1295 1.28613L39.6878 1.36116L40.2467 1.44542L40.8059 1.53904L41.3652 1.64216L41.9245 1.75489L42.4835 1.87735L43.0419 2.00963L43.5996 2.1518L44.1563 2.30393L44.7119 2.46605L45.2661 2.6382L45.8186 2.82039L46.3694 3.01262L46.9182 3.21488L47.4647 3.42714L48.0089 3.64936L48.5505 3.88151L49.0894 4.12352L49.6253 4.37534L50.1582 4.6369L50.6878 4.90811L51.214 5.18891L51.7366 5.4792L52.2556 5.7789L52.7706 6.08791L53.2817 6.40613L53.7887 6.73347L54.2914 7.06984L54.7897 7.41512L55.2836 7.76921L55.7727 8.13203L56.2571 8.50346L56.7367 8.8834L57.2112 9.27176L57.6806 9.66844L58.1448 10.0733L58.6036 10.4863L59.057 10.9074L59.5048 11.3363L59.9468 11.7731L60.3831 12.2176L60.8134 12.6697L61.2376 13.1294L61.6556 13.5965L62.0674 14.0709L62.4727 14.5526L62.8715 15.0415L63.2636 15.5374L63.649 16.0402L64.0274 16.5499L64.3989 17.0664L64.7632 17.5894L65.1203 18.119L65.47 18.6551L65.8123 19.1974L66.147 19.746L66.4739 20.3007L66.793 20.8613L67.1042 21.4279L67.4072 22.0002L67.702 22.5782L67.9883 23.1617L68.2662 23.7506L68.5354 24.3449L68.7957 24.9443L69.0471 25.5488L69.2893 26.1581L69.5223 26.7723L69.7458 27.3911L69.9597 28.0143L70.1639 28.6419L70.3581 29.2737L70.5423 29.9095L70.7163 30.5492L70.8799 31.1925L71.0331 31.8393L71.1755 32.4895L71.3071 33.1427L71.4277 33.7989L71.5373 34.4578L71.6355 35.1193L71.7224 35.783L71.7978 36.4488L71.8614 37.1165" stroke="#BDE29C" stroke-width="2"/>
</svg>
