<svg width="222" height="226" viewBox="0 0 222 226" fill="none" xmlns="http://www.w3.org/2000/svg">
<path d="M151.346 113.112V113.112ZM151.346 113.112L151.589 113.519L152.324 113.94L153.567 114.392L155.347 114.89L157.7 115.454L160.668 116.102L164.295 116.857L168.617 117.742L173.65 118.78L179.369 119.99L185.691 121.384L192.444 122.961L199.346 124.697L205.996 126.54L211.895 128.409L216.501 130.192L219.317 131.765L220 133.01L218.445 133.842L214.814 134.223L209.494 134.171L203.01 133.75L195.915 133.053L188.702 132.181L181.756 131.228L175.336 130.271L169.595 129.368L164.597 128.559L160.352 127.87L156.836 127.318L154.009 126.914L151.83 126.665L150.264 126.582L149.291 126.677L148.909 126.97L149.124 127.483L149.915 128.229L151.274 129.224L153.212 130.494L155.751 132.068L158.917 133.98L162.732 136.264L167.199 138.946L172.287 142.036L177.906 145.516L183.888 149.324L189.964 153.337L195.76 157.369L200.822 161.166L204.668 164.44L206.873 166.905L207.163 168.341L205.481 168.639L202.005 167.828L197.103 166.058L191.247 163.567L184.919 160.623L178.538 157.478L172.425 154.342L166.79 151.369L161.751 148.659L157.352 146.268L153.593 144.222L150.441 142.524L147.854 141.168L145.784 140.141L144.187 139.433L143.024 139.034L142.265 138.939L141.889 139.152L141.883 139.68L142.245 140.541L142.979 141.758L144.096 143.364L145.614 145.397L147.553 147.901L149.931 150.92L152.76 154.494L156.031 158.646L159.71 163.368L163.712 168.606L167.895 174.231L172.045 180.026L175.875 185.675L179.049 190.78L181.225 194.902L182.119 197.639L181.571 198.709L179.588 198.016L176.347 195.673L172.155 191.975L167.376 187.322L162.369 182.141L157.435 176.817L152.791 171.652L148.572 166.856L144.846 162.557L141.631 158.819L138.91 155.66L136.654 153.074L134.824 151.041L133.384 149.543L132.303 148.565L131.558 148.108L131.138 148.189L131.031 148.823L131.212 150.008L131.667 151.755L132.388 154.091L133.375 157.056L134.625 160.693L136.132 165.04L137.881 170.113L139.835 175.892L141.932 182.29L144.077 189.132L146.133 196.13L147.93 202.877L149.279 208.872L150.001 213.583L149.964 216.537L149.115 217.425L147.5 216.175L145.252 212.968L142.563 208.191L139.644 202.343L136.687 195.935L133.843 189.417L131.213 183.134L128.852 177.32L126.781 172.111L124.994 167.566L123.471 163.697L122.186 160.482L121.109 157.886L120.212 155.869L119.469 154.395L118.856 153.432L118.355 152.96L117.947 152.97L117.618 153.462L117.356 154.449L117.148 155.954L116.983 158.011L116.849 160.663L116.734 163.956L116.623 167.935L116.498 172.635L116.338 178.061L116.119 184.176L115.814 190.866L115.395 197.923L114.837 205.017L114.125 211.701L113.262 217.44L112.268 221.683L111.189 223.963L110.084 224L109.022 221.778L108.063 217.546L107.248 211.756L106.596 204.963L106.107 197.717L105.76 190.487L105.527 183.621L105.379 177.348L105.285 171.789L105.218 166.994L105.155 162.958L105.079 159.654L104.971 157.042L104.817 155.085L104.602 153.754L104.308 153.038L103.915 152.947L103.403 153.478L102.757 154.615L101.956 156.361L100.978 158.737L99.7953 161.77L98.3787 165.495L96.7003 169.931L94.7375 175.076L92.4804 180.88L89.9412 187.223L87.1653 193.887L84.2425 200.543L81.3114 206.75L78.5547 211.993L76.179 215.754L74.3804 217.613L73.3045 217.341L73.0148 214.96L73.4798 210.739L74.5865 205.123L76.1697 198.636L78.0484 191.786L80.0545 184.995L82.0511 178.571L83.9381 172.709L85.6496 167.509L87.1478 163.005L88.4142 159.184L89.4433 156.009L90.2363 153.433L90.7971 151.408L91.1292 149.89L91.2337 148.843L91.1079 148.24L90.7441 148.063L90.1293 148.306L89.2444 148.972L88.0641 150.073L86.5569 151.63L84.686 153.667L82.4113 156.212L79.693 159.289L76.4981 162.91L72.8097 167.06L68.6413 171.685L64.0538 176.668L59.1739 181.814L54.2091 186.84L49.4489 191.38L45.2455 195.019L41.9678 197.358L39.9337 198.091L39.3407 197.08L40.218 194.394L42.4221 190.296L45.6746 185.177L49.6277 179.478L53.9315 173.607L58.2833 167.894L62.4523 162.571L66.2829 157.774L69.684 153.567L72.6127 149.962L75.0578 146.936L77.0259 144.454L78.5299 142.475L79.5815 140.96L80.1847 139.881L80.3309 139.221L79.9963 138.974L79.1729 139.122L77.8568 139.645L76.028 140.535L73.6534 141.792L70.6923 143.423L67.1029 145.432L62.852 147.816L57.9305 150.554L52.3722 153.595L46.2782 156.844L39.8411 160.155L33.3615 163.322L27.2459 166.089L21.9733 168.179L18.0275 169.336L15.8046 169.383L15.5238 168.265L17.1751 166.065L20.5246 162.987L25.1762 159.309L30.661 155.327L36.5238 151.301L42.3823 147.436L47.9537 143.866L53.0539 140.666L57.5821 137.862L61.4979 135.45L64.801 133.407L67.5137 131.699L69.6682 130.291L71.2984 129.149L72.4341 128.243L73.0976 127.545L73.3025 127.035L73.0516 126.696L72.3374 126.514L71.1411 126.48L69.4338 126.588L67.1769 126.833L64.3249 127.21L60.8292 127.715L56.6456 128.339L51.7456 129.069L46.1325 129.881L39.8642 130.738L33.0784 131.588L26.0185 132.36L19.0476 132.968L12.6404 133.317L7.33928 133.322L3.67264 132.919L2.04937 132.088L2.66282 130.862L5.44093 129.32L10.0643 127.574L16.0447 125.745L22.8306 123.943L29.9039 122.248L36.8427 120.714L43.3451 119.361L49.2239 118.193L54.384 117.196L58.7957 116.351L62.4697 115.634L65.4368 115.02L67.7334 114.488L69.3911 114.017L70.4288 113.586L70.8469 113.176L70.6298 112.77L69.7884 112.348L68.3296 111.892L66.2395 111.381L63.4898 110.796L60.0448 110.114L55.8705 109.312L50.948 108.366L45.2915 107.255L38.9723 105.962L32.1456 104.484L25.0749 102.836L18.1449 101.06L11.848 99.2293L6.7342 97.4441L3.3236 95.824L2 94.4864L2.91953 93.5237L5.97104 92.9843L10.8053 92.8641L16.9204 93.1127L23.7677 93.6486L30.8445 94.3783L37.7496 95.2119L44.2023 96.0734L50.0336 96.9043L55.1632 97.6632L59.573 98.323L63.2835 98.8671L66.3353 99.2857L68.7766 99.5731L70.6544 99.725L72.0098 99.737L72.8751 99.6031L73.2722 99.315L73.2123 98.861L72.6958 98.2253L71.7126 97.3879L70.2429 96.3242L68.2589 95.0047L65.7277 93.3963L62.6158 91.4635L58.8965 89.1722L54.5613 86.4948L49.6357 83.4195L44.1988 79.9617L38.406 76.1791L32.5076 72.1861L26.8555 68.1639L21.8868 64.3579L18.0741 61.0569L15.8472 58.5502L15.5 57.0717L17.1177 56.7471L20.5508 57.5651L25.4511 59.3828L31.3521 61.9642L37.7643 65.0332L44.2529 68.3234L50.482 71.6114L56.2259 74.731L61.3566 77.5725L65.8217 80.0728L69.6191 82.2025L72.7759 83.9536L75.3327 85.3291L77.3313 86.3353L78.8078 86.9754L79.7869 87.2449L80.2778 87.1271L80.2818 86.5984L79.8224 85.6538L78.9135 84.2807L77.5546 82.4531L75.7359 80.1356L73.4439 77.2876L70.6691 73.87L67.4157 69.8555L63.7147 65.243L59.64 60.0764L55.3251 54.4674L50.9763 48.6158L46.8749 42.8203L43.3602 37.4689L40.7872 32.9988L39.4641 29.8269L39.5834 28.2649L41.1725 28.4477L44.0841 30.3014L48.0317 33.5671L52.6547 37.8658L57.5894 42.7799L62.5229 47.923L67.221 52.9833L71.5323 57.7382L75.3769 62.0481L78.7283 65.8406L81.5954 69.0907L84.0072 71.8032L86.0023 73.9991L87.6212 75.7056L88.9019 76.9494L89.8779 77.7525L90.5763 78.1296L91.0183 78.0868L91.2189 77.6204L91.1873 76.7169L90.9276 75.3525L90.4399 73.4937L89.7213 71.0987L88.7678 68.12L87.5768 64.5093L86.1512 60.2251L84.5046 55.246L82.6678 49.5877L80.697 43.3264L78.6808 36.6246L76.7446 29.753L75.0477 23.0987L73.7699 17.1473L73.085 12.4272L73.1265 9.42097L73.9543 8.46246L75.5351 9.65603L77.7467 12.8497L80.4047 17.6743L83.3018 23.6318L86.2447 30.1968L89.0793 36.8998L91.7008 43.3737L94.0505 49.3668L96.1067 54.7302L97.8737 59.3944L99.3709 63.3438L100.625 66.5943L101.665 69.1757L102.519 71.1195L103.212 72.4494L103.765 73.1748L104.195 73.2844L104.518 72.7655L104.756 71.6306L104.928 69.8748L105.048 67.475L105.133 64.3959L105.198 60.5975L105.261 56.046L105.345 50.7282L105.473 44.6731L105.675 37.9768L105.982 30.8308L106.423 23.5443L107.022 16.5501L107.786 10.3789L108.703 5.59425L109.738 2.69357L110.836 2L111.931 3.58368L112.958 7.24483L113.866 12.5659L114.627 19.0099L115.233 26.027L115.694 33.1369L116.033 39.9721L116.276 46.2864L116.452 51.9393L116.585 56.8713L116.699 61.0772L116.811 64.5842L116.937 67.4351L117.091 69.677L117.284 71.3539L117.528 72.5027L117.834 73.1504L118.215 73.313L118.685 72.9953L119.26 72.1908L119.96 70.8819L120.805 69.0414L121.822 66.6341L123.038 63.6206L124.481 59.963L126.182 55.6346L128.161 50.6334L130.43 45.0014L132.979 38.8477L135.763 32.3725L138.698 25.8852L141.648 19.8047L144.433 14.6298L146.844 10.8737L148.679 8.9695L149.781 9.17169L150.076 11.4907L149.585 15.6872L148.418 21.3305L146.743 27.8955L144.749 34.8626L142.616 41.7914L140.491 48.3553L138.483 54.3444L136.664 59.6472L135.078 64.2247L133.745 68.0843L132.674 71.2589L131.868 73.7911L131.328 75.7218L131.058 77.0833L131.072 77.8932L131.389 78.1505L132.03 77.8618L133.002 77.0493L134.325 75.7176L136.027 73.857L138.143 71.4492L140.712 68.4741L143.767 64.9199L147.33 60.7956L151.396 56.1479L155.916 51.0818L160.778 45.7797L165.79 40.515L170.678 35.6486L175.098 31.5998L178.68 28.7865L181.09 27.5456L182.104 28.0542L181.659 30.2834L179.866 34.0043L176.974 38.8434L173.315 44.3653L169.233 50.1525L165.034 55.8599L160.955 61.2388L157.162 66.1347L153.755 70.4709L150.783 74.2272L148.262 77.4193L146.185 80.0826L144.535 82.2609L143.292 83.9984L142.438 85.3358L141.959 86.3071L141.847 86.9391L142.104 87.2508L142.739 87.2536L143.771 86.9516L145.226 86.3425L147.141 85.4187L149.558 84.169L152.525 82.5811L156.086 80.6459L160.28 78.3634L165.117 75.7506L170.571 72.8527L176.55 69.7548L182.875 66.5927L189.26 63.5585L195.317 60.8937L200.577 58.8661L204.554 57.7279L206.837 57.6633L207.181 58.7425L205.566 60.8994L202.202 63.9442L197.475 67.607L191.861 71.5938L185.829 75.6369L179.783 79.5263L174.025 83.1198L168.755 86.3379L164.084 89.1497L160.061 91.558L156.69 93.5853L153.955 95.2635L151.828 96.6267L150.286 97.7064L149.314 98.5293L148.914 99.115L149.104 99.4763L149.89 99.6321L151.266 99.6041L153.247 99.4071L155.863 99.0513L159.155 98.5453L163.164 97.8988L167.921 97.1259L173.429 96.2492L179.645 95.3039L186.446 94.342L193.61 93.4348L200.791 92.6713L207.528 92.1518L213.279 91.9735L217.499 92.2119L219.745 92.9012L219.776 94.0221L217.612 95.5025L213.528 97.2324L207.982 99.0868L201.514 100.949L194.643 102.726L187.807 104.357L181.324 105.81L175.399 107.078L170.143 108.169L165.595 109.1L161.75 109.894L158.576 110.574L156.032 111.162L154.075 111.68L152.664 112.144L151.769 112.574L151.371 112.983L151.346 113.112Z" stroke="#AADF7C" stroke-width="2"/>
</svg>
