<svg width="26" height="23" viewBox="0 0 26 23" fill="none" xmlns="http://www.w3.org/2000/svg">
<path d="M20.5886 20.1668H21.1033C22.3107 20.1668 23.271 19.6166 24.1332 18.8474C26.3237 16.8933 21.1746 14.9165 19.4167 14.9165" stroke="#2A353D" stroke-width="1.5" stroke-linecap="round" stroke-linejoin="round"/>
<path d="M16.5 3.91348C16.7649 3.86094 17.04 3.83325 17.3222 3.83325C19.4454 3.83325 21.1667 5.40026 21.1667 7.33325C21.1667 9.26625 19.4454 10.8333 17.3222 10.8333C17.04 10.8333 16.7649 10.8056 16.5 10.753" stroke="#2A353D" stroke-width="1.5" stroke-linecap="round"/>
<path d="M4.57969 15.6296C3.29592 16.3668 -0.0700544 17.8719 1.98005 19.7552C2.98151 20.6753 4.09687 21.3333 5.49916 21.3333H13.5009C14.9032 21.3333 16.0186 20.6753 17.02 19.7552C19.0701 17.8719 15.7042 16.3667 14.4204 15.6296C11.41 13.9011 7.59012 13.9011 4.57969 15.6296Z" stroke="#2A353D" stroke-width="1.5" stroke-linecap="round" stroke-linejoin="round"/>
<path d="M14.1667 6.16667C14.1667 8.744 12.0774 10.8333 9.50004 10.8333C6.92271 10.8333 4.83337 8.744 4.83337 6.16667C4.83337 3.58934 6.92271 1.5 9.50004 1.5C12.0774 1.5 14.1667 3.58934 14.1667 6.16667Z" stroke="#2A353D" stroke-width="1.5"/>
</svg>
