<svg width="28" height="28" viewBox="0 0 28 28" fill="none" xmlns="http://www.w3.org/2000/svg">
<path d="M2.9516 16.793C2.7035 18.3715 3.81268 19.4671 5.17075 20.0132C10.3773 22.1066 17.6227 22.1066 22.8293 20.0132C24.1874 19.4671 25.2965 18.3715 25.0484 16.793C24.896 15.8229 24.142 15.0151 23.5835 14.2263C22.8518 13.1804 22.7791 12.0396 22.779 10.8259C22.779 6.13554 18.8485 2.33325 14 2.33325C9.1515 2.33325 5.221 6.13554 5.221 10.8259C5.22089 12.0396 5.1482 13.1804 4.41656 14.2263C3.858 15.0151 3.10407 15.8229 2.9516 16.793Z" stroke="#2A353D" stroke-width="1.5" stroke-linecap="round" stroke-linejoin="round"/>
<path d="M10.5 24.5C11.4288 25.2255 12.6554 25.6667 14 25.6667C15.3446 25.6667 16.5712 25.2255 17.5 24.5" stroke="#2A353D" stroke-width="1.5" stroke-linecap="round" stroke-linejoin="round"/>
</svg>
