<svg width="26" height="26" viewBox="0 0 26 26" fill="none" xmlns="http://www.w3.org/2000/svg">
<path d="M20 20.1951C15.0179 21.6784 8.79136 21.463 4.17069 19.5489C2.81262 18.9863 1.70344 17.8575 1.95154 16.2311C2.10401 15.2316 2.85794 14.3993 3.4165 13.5866C4.14814 12.509 4.22083 11.3337 4.22094 10.0832C4.22094 8.47442 4.65655 6.71169 5.41663 5.4165" stroke="#2A353D" stroke-width="1.5" stroke-linecap="round" stroke-linejoin="round"/>
<path d="M7.75 3.06961C9.21304 1.97902 11.0287 1.33325 12.9956 1.33325C17.8401 1.33325 21.7673 5.25076 21.7673 10.0833C21.7674 11.3337 21.8401 12.5091 22.5711 13.5866C23.1292 14.3994 23.8825 15.2316 24.0348 16.2311C24.1753 17.1528 24.0159 17.6603 23.4869 18.2499" stroke="#2A353D" stroke-width="1.5" stroke-linecap="round" stroke-linejoin="round"/>
<path d="M24.6666 24.6666L1.33331 1.33325" stroke="#2A353D" stroke-width="1.5" stroke-linecap="round"/>
<path d="M8.33331 21.1665C8.86821 23.1793 10.7548 24.6665 13 24.6665C15.2452 24.6665 17.1317 23.1793 17.6666 21.1665" stroke="#2A353D" stroke-width="1.5" stroke-linecap="round" stroke-linejoin="round"/>
</svg>
