<svg width="24" height="26" viewBox="0 0 24 26" fill="none" xmlns="http://www.w3.org/2000/svg">
<path d="M5.67384 17.0618C4.02327 18.0446 -0.304408 20.0514 2.33144 22.5626C3.61903 23.7893 5.05307 24.6666 6.85601 24.6666H17.144C18.9469 24.6666 20.381 23.7893 21.6686 22.5626C24.3044 20.0514 19.9767 18.0446 18.3262 17.0618C14.4556 14.7571 9.54438 14.7571 5.67384 17.0618Z" stroke="#2A353D" stroke-width="1.5" stroke-linecap="round" stroke-linejoin="round"/>
<path d="M17.25 6.58325C17.25 9.48275 14.8995 11.8333 12 11.8333C9.10051 11.8333 6.75 9.48275 6.75 6.58325C6.75 3.68376 9.10051 1.33325 12 1.33325C14.8995 1.33325 17.25 3.68376 17.25 6.58325Z" stroke="#2A353D" stroke-width="1.5"/>
</svg>
