<svg width="26" height="26" viewBox="0 0 26 26" fill="none" xmlns="http://www.w3.org/2000/svg">
<path d="M9.49941 24.6667L9.207 20.573C9.04979 18.3721 10.7929 16.5 12.9994 16.5C15.2059 16.5 16.949 18.3721 16.7918 20.573L16.4994 24.6667" stroke="#2A353D" stroke-width="1.5"/>
<path d="M1.74345 14.4156C1.3316 11.7355 1.12567 10.3955 1.63236 9.20752C2.13904 8.01956 3.26319 7.20676 5.51149 5.58116L7.19132 4.36659C9.98817 2.34436 11.3866 1.33325 13.0002 1.33325C14.6137 1.33325 16.0122 2.34436 18.809 4.36659L20.4888 5.58116C22.7371 7.20676 23.8613 8.01956 24.368 9.20752C24.8747 10.3955 24.6687 11.7355 24.2569 14.4156L23.9057 16.701C23.3218 20.5003 23.0299 22.4 21.6673 23.5333C20.3048 24.6666 18.3128 24.6666 14.3288 24.6666H11.6715C7.68755 24.6666 5.69555 24.6666 4.33299 23.5333C2.97043 22.4 2.67851 20.5003 2.09466 16.701L1.74345 14.4156Z" stroke="#2A353D" stroke-width="1.5" stroke-linejoin="round"/>
</svg>
