<svg width="28" height="22" viewBox="0 0 28 22" fill="none" xmlns="http://www.w3.org/2000/svg">
<path d="M24.2364 18C25.1106 18 25.8059 17.4499 26.4302 16.6807C27.7082 15.106 25.6099 13.8476 24.8096 13.2314C23.996 12.6049 23.0877 12.25 22.1667 12.1667M21 9.83333C22.6108 9.83333 23.9167 8.5275 23.9167 6.91667C23.9167 5.30584 22.6108 4 21 4" stroke="#2A353D" stroke-width="1.5" stroke-linecap="round"/>
<path d="M3.76358 18C2.88939 18 2.19407 17.4499 1.56976 16.6807C0.291729 15.106 2.39008 13.8476 3.19038 13.2314C4.00393 12.6049 4.91231 12.25 5.83329 12.1667M6.41663 9.83333C4.8058 9.83333 3.49996 8.5275 3.49996 6.91667C3.49996 5.30584 4.8058 4 6.41663 4" stroke="#2A353D" stroke-width="1.5" stroke-linecap="round"/>
<path d="M9.43106 14.6299C8.23899 15.367 5.11344 16.8721 7.01711 18.7555C7.94703 19.6755 8.98273 20.3335 10.2849 20.3335H17.7151C19.0172 20.3335 20.0529 19.6755 20.9828 18.7555C22.8865 16.8721 19.7609 15.367 18.5689 14.6299C15.7735 12.9014 12.2265 12.9014 9.43106 14.6299Z" stroke="#2A353D" stroke-width="1.5" stroke-linecap="round" stroke-linejoin="round"/>
<path d="M18.0833 5.75008C18.0833 8.00524 16.2551 9.83341 14 9.83341C11.7448 9.83341 9.91663 8.00524 9.91663 5.75008C9.91663 3.49492 11.7448 1.66675 14 1.66675C16.2551 1.66675 18.0833 3.49492 18.0833 5.75008Z" stroke="#2A353D" stroke-width="1.5"/>
</svg>
