<svg width="54" height="54" viewBox="0 0 54 54" fill="none" xmlns="http://www.w3.org/2000/svg">
<path d="M48.3068 48.4432C48.9658 49.1023 50.0342 49.1023 50.6932 48.4432C51.3523 47.7842 51.3523 46.7158 50.6932 46.0568L48.3068 48.4432ZM42.9068 43.0432L48.3068 48.4432L50.6932 46.0568L45.2932 40.6568L42.9068 43.0432ZM48.4875 32.4C48.4875 24.7578 42.2922 18.5625 34.65 18.5625V21.9375C40.4283 21.9375 45.1125 26.6217 45.1125 32.4H48.4875ZM34.65 18.5625C27.0078 18.5625 20.8125 24.7578 20.8125 32.4H24.1875C24.1875 26.6217 28.8717 21.9375 34.65 21.9375V18.5625ZM20.8125 32.4C20.8125 40.0422 27.0078 46.2375 34.65 46.2375V42.8625C28.8717 42.8625 24.1875 38.1783 24.1875 32.4H20.8125ZM34.65 46.2375C42.2922 46.2375 48.4875 40.0422 48.4875 32.4H45.1125C45.1125 38.1783 40.4283 42.8625 34.65 42.8625V46.2375Z" fill="#141B34"/>
<path opacity="0.4" d="M4.5 22.5L15.75 22.5001" stroke="#141B34" stroke-width="3.375" stroke-linecap="round" stroke-linejoin="round"/>
<path d="M4.5 38.25H15.75" stroke="#141B34" stroke-width="3.375" stroke-linecap="round" stroke-linejoin="round"/>
<path opacity="0.4" d="M4.5 6.75H42.75" stroke="#141B34" stroke-width="3.375" stroke-linecap="round" stroke-linejoin="round"/>
</svg>
